<svg xmlns="http://www.w3.org/2000/svg" viewBox="0 0 404 681" role="img" aria-labelledby="title desc">
  <title id="title">Eliezer Web Studio logo</title>
  <desc id="desc">Vectorized monogram and wordmark traced from the supplied transparent PNG logo.</desc>
  <path fill="#E8CF9F" fill-rule="evenodd" d="
    M374 0 L374 1 L375 1 L375 5 L376 5 L376 12 L377 12 L377 18 L378 18 L378 24 L379 24 L379 30 L380 30 L380 37 L381 37 L381 44 L382 44 L382 50 L383 50 L383 56 L384 56 L384 63 L385 63 L385 70 L386 70 L386 76 L387 76 L387 83 L388 83 L388 89 L389 89 L389 96 L390 96 L390 100 L386 100 L386 99 L385 99 L385 96 L384 96 L384 93 L383 93 L383 90 L382 90 L382 87 L381 87 L381 85 L380 85 L380 83 L379 83 L379 81 L378 81 L378 79 L377 79 L377 77 L376 77 L376 75 L375 75 L375 73 L374 73 L374 71 L373 71 L373 70 L372 70 L372 68 L371 68 L371 66 L370 66 L370 65 L369 65 L369 63 L368 63 L368 62 L367 62 L367 61 L366 61 L366 59 L365 59 L365 58 L364 58 L364 57 L363 57 L363 55 L362 55 L362 54 L361 54 L361 53 L360 53 L360 52 L359 52 L359 51 L358 51 L358 50 L357 50 L357 49 L356 49 L356 48 L355 48 L355 47 L354 47 L354 46 L353 46 L353 45 L352 45 L352 44 L351 44 L351 43 L350 43 L350 42 L349 42 L349 41 L348 41 L348 40 L347 40 L347 39 L345 39 L345 38 L344 38 L344 37 L343 37 L343 36 L342 36 L342 35 L340 35 L340 34 L339 34 L339 33 L337 33 L337 32 L336 32 L336 31 L334 31 L334 30 L332 30 L332 29 L330 29 L330 28 L328 28 L328 27 L326 27 L326 26 L324 26 L324 25 L322 25 L322 24 L320 24 L320 23 L317 23 L317 22 L315 22 L315 21 L312 21 L312 20 L309 20 L309 19 L306 19 L306 18 L302 18 L302 17 L298 17 L298 16 L293 16 L293 15 L288 15 L288 14 L282 14 L282 13 L274 13 L274 12 L263 12 L263 11 L143 11 L143 12 L141 12 L141 13 L140 13 L140 14 L139 14 L139 15 L138 15 L138 16 L137 16 L137 19 L136 19 L136 234 L134 234 L134 235 L132 235 L132 236 L130 236 L130 237 L128 237 L128 238 L127 238 L127 239 L125 239 L125 240 L123 240 L123 241 L122 241 L122 242 L120 242 L120 243 L119 243 L119 244 L117 244 L117 245 L116 245 L116 246 L115 246 L115 247 L113 247 L113 248 L112 248 L112 249 L111 249 L111 250 L110 250 L110 251 L108 251 L108 252 L107 252 L107 253 L106 253 L106 254 L105 254 L105 255 L104 255 L104 256 L103 256 L103 257 L102 257 L102 258 L101 258 L101 259 L100 259 L100 260 L99 260 L99 261 L98 261 L98 262 L97 262 L97 263 L96 263 L96 264 L94 264 L94 266 L93 266 L93 267 L92 267 L92 268 L91 268 L91 269 L90 269 L90 270 L89 270 L89 271 L88 271 L88 272 L87 272 L87 274 L86 274 L86 275 L85 275 L85 276 L84 276 L84 277 L83 277 L83 279 L82 279 L82 280 L81 280 L81 281 L80 281 L80 283 L79 283 L79 284 L78 284 L78 286 L77 286 L77 287 L76 287 L76 289 L75 289 L75 290 L74 290 L74 292 L73 292 L73 294 L72 294 L72 295 L71 295 L71 297 L70 297 L70 299 L69 299 L69 301 L68 301 L68 303 L67 303 L67 305 L66 305 L66 307 L65 307 L65 309 L64 309 L64 311 L63 311 L63 313 L62 313 L62 315 L61 315 L61 318 L60 318 L60 321 L59 321 L59 323 L58 323 L58 326 L57 326 L57 329 L56 329 L56 332 L55 332 L55 335 L54 335 L54 338 L53 338 L53 341 L52 341 L52 345 L51 345 L51 349 L50 349 L50 354 L49 354 L49 359 L48 359 L48 363 L46 363 L46 47 L45 47 L45 37 L44 37 L44 33 L43 33 L43 30 L42 30 L42 27 L41 27 L41 25 L40 25 L40 23 L39 23 L39 22 L38 22 L38 20 L37 20 L37 19 L36 19 L36 18 L35 18 L35 17 L34 17 L34 16 L33 16 L33 15 L31 15 L31 14 L30 14 L30 13 L28 13 L28 12 L26 12 L26 11 L24 11 L24 10 L22 10 L22 9 L19 9 L19 8 L16 8 L16 7 L11 7 L11 6 L4 6 L4 5 L0 5 L0 1 L1 1 L1 0 Z
    M310 161 L310 163 L309 163 L309 169 L308 169 L308 173 L307 173 L307 178 L306 178 L306 182 L305 182 L305 186 L304 186 L304 190 L303 190 L303 194 L302 194 L302 197 L301 197 L301 201 L300 201 L300 205 L299 205 L299 208 L298 208 L298 211 L297 211 L297 214 L296 214 L296 218 L295 218 L295 221 L294 221 L294 225 L293 225 L293 228 L292 228 L292 231 L291 231 L291 234 L290 234 L290 238 L289 238 L289 241 L288 241 L288 245 L287 245 L287 248 L286 248 L286 251 L285 251 L285 255 L284 255 L284 258 L283 258 L283 261 L282 261 L282 265 L281 265 L281 268 L280 268 L280 271 L279 271 L279 273 L181 273 L181 274 L173 274 L173 275 L168 275 L168 276 L164 276 L164 277 L161 277 L161 278 L159 278 L159 279 L156 279 L156 280 L154 280 L154 281 L152 281 L152 282 L151 282 L151 283 L149 283 L149 284 L148 284 L148 285 L147 285 L147 286 L146 286 L146 287 L145 287 L145 288 L144 288 L144 289 L143 289 L143 290 L142 290 L142 292 L141 292 L141 293 L140 293 L140 295 L139 295 L139 298 L138 298 L138 301 L137 301 L137 305 L136 305 L136 478 L137 478 L137 481 L138 481 L138 483 L139 483 L139 484 L140 484 L140 485 L142 485 L142 486 L260 486 L260 485 L269 485 L269 484 L276 484 L276 483 L282 483 L282 482 L286 482 L286 481 L291 481 L291 480 L295 480 L295 479 L299 479 L299 478 L302 478 L302 477 L305 477 L305 476 L308 476 L308 475 L310 475 L310 474 L313 474 L313 473 L316 473 L316 472 L318 472 L318 471 L320 471 L320 470 L322 470 L322 469 L324 469 L324 468 L326 468 L326 467 L328 467 L328 466 L330 466 L330 465 L332 465 L332 464 L334 464 L334 463 L335 463 L335 462 L337 462 L337 461 L338 461 L338 460 L340 460 L340 459 L341 459 L341 458 L343 458 L343 457 L344 457 L344 456 L346 456 L346 455 L347 455 L347 454 L348 454 L348 453 L349 453 L349 452 L351 452 L351 451 L352 451 L352 450 L353 450 L353 449 L354 449 L354 448 L355 448 L355 447 L356 447 L356 446 L358 446 L358 445 L359 445 L359 444 L360 444 L360 443 L361 443 L361 442 L362 442 L362 441 L363 441 L363 440 L364 440 L364 439 L365 439 L365 438 L366 438 L366 436 L367 436 L367 435 L368 435 L368 434 L369 434 L369 433 L370 433 L370 432 L371 432 L371 431 L372 431 L372 430 L373 430 L373 428 L374 428 L374 427 L375 427 L375 426 L376 426 L376 424 L377 424 L377 423 L378 423 L378 422 L379 422 L379 420 L380 420 L380 419 L381 419 L381 417 L382 417 L382 416 L383 416 L383 414 L384 414 L384 412 L385 412 L385 411 L386 411 L386 409 L387 409 L387 407 L388 407 L388 406 L389 406 L389 404 L390 404 L390 402 L391 402 L391 400 L392 400 L392 398 L393 398 L393 396 L394 396 L394 394 L395 394 L395 392 L396 392 L396 390 L397 390 L397 387 L398 387 L398 385 L399 385 L399 383 L400 383 L400 380 L404 380 L404 384 L403 384 L403 389 L402 389 L402 394 L401 394 L401 399 L400 399 L400 404 L399 404 L399 409 L398 409 L398 415 L397 415 L397 420 L396 420 L396 425 L395 425 L395 430 L394 430 L394 435 L393 435 L393 440 L392 440 L392 445 L391 445 L391 450 L390 450 L390 455 L389 455 L389 460 L388 460 L388 465 L387 465 L387 470 L386 470 L386 475 L385 475 L385 480 L384 480 L384 485 L383 485 L383 491 L382 491 L382 496 L381 496 L381 497 L0 497 L0 491 L7 491 L7 490 L13 490 L13 489 L17 489 L17 488 L21 488 L21 487 L23 487 L23 486 L26 486 L26 485 L28 485 L28 484 L29 484 L29 483 L31 483 L31 482 L33 482 L33 481 L34 481 L34 480 L35 480 L35 479 L36 479 L36 478 L37 478 L37 477 L38 477 L38 476 L39 476 L39 475 L40 475 L40 474 L41 474 L41 472 L42 472 L42 471 L43 471 L43 469 L44 469 L44 467 L45 467 L45 465 L46 465 L46 463 L47 463 L47 460 L48 460 L48 457 L49 457 L49 453 L50 453 L50 448 L51 448 L51 442 L52 442 L52 436 L53 436 L53 429 L54 429 L54 422 L55 422 L55 416 L56 416 L56 410 L57 410 L57 405 L58 405 L58 400 L59 400 L59 396 L60 396 L60 391 L61 391 L61 387 L62 387 L62 384 L63 384 L63 380 L64 380 L64 377 L65 377 L65 374 L66 374 L66 371 L67 371 L67 368 L68 368 L68 365 L69 365 L69 362 L70 362 L70 360 L71 360 L71 357 L72 357 L72 355 L73 355 L73 352 L74 352 L74 350 L75 350 L75 347 L76 347 L76 345 L77 345 L77 343 L78 343 L78 340 L79 340 L79 338 L80 338 L80 336 L81 336 L81 334 L82 334 L82 332 L83 332 L83 330 L84 330 L84 328 L85 328 L85 327 L86 327 L86 325 L87 325 L87 323 L88 323 L88 321 L89 321 L89 319 L90 319 L90 318 L91 318 L91 316 L92 316 L92 314 L93 314 L93 313 L94 313 L94 311 L95 311 L95 310 L96 310 L96 308 L97 308 L97 307 L98 307 L98 305 L99 305 L99 304 L100 304 L100 303 L101 303 L101 301 L102 301 L102 300 L103 300 L103 298 L104 298 L104 297 L105 297 L105 296 L106 296 L106 295 L107 295 L107 294 L108 294 L108 292 L109 292 L109 291 L110 291 L110 290 L111 290 L111 289 L112 289 L112 288 L113 288 L113 287 L114 287 L114 286 L115 286 L115 285 L116 285 L116 283 L117 283 L117 282 L118 282 L118 281 L119 281 L119 280 L120 280 L120 279 L121 279 L121 278 L122 278 L122 277 L123 277 L123 276 L124 276 L124 275 L126 275 L126 274 L127 274 L127 273 L128 273 L128 272 L129 272 L129 271 L130 271 L130 270 L132 270 L132 269 L133 269 L133 268 L134 268 L134 267 L135 267 L135 266 L137 266 L137 265 L138 265 L138 264 L139 264 L139 263 L141 263 L141 262 L142 262 L142 261 L144 261 L144 260 L145 260 L145 259 L147 259 L147 258 L148 258 L148 257 L150 257 L150 256 L152 256 L152 255 L154 255 L154 254 L156 254 L156 253 L157 253 L157 252 L159 252 L159 251 L161 251 L161 250 L163 250 L163 249 L165 249 L165 248 L167 248 L167 247 L170 247 L170 246 L172 246 L172 245 L175 245 L175 244 L177 244 L177 243 L180 243 L180 242 L183 242 L183 241 L186 241 L186 240 L189 240 L189 239 L192 239 L192 238 L196 238 L196 237 L200 237 L200 236 L203 236 L203 235 L208 235 L208 234 L212 234 L212 233 L216 233 L216 232 L220 232 L220 231 L224 231 L224 230 L227 230 L227 229 L230 229 L230 228 L233 228 L233 227 L236 227 L236 226 L239 226 L239 225 L241 225 L241 224 L244 224 L244 223 L246 223 L246 222 L248 222 L248 221 L250 221 L250 220 L252 220 L252 219 L254 219 L254 218 L256 218 L256 217 L258 217 L258 216 L260 216 L260 215 L262 215 L262 214 L263 214 L263 213 L265 213 L265 212 L266 212 L266 211 L268 211 L268 210 L269 210 L269 209 L271 209 L271 208 L272 208 L272 207 L273 207 L273 206 L275 206 L275 205 L276 205 L276 204 L277 204 L277 203 L278 203 L278 202 L279 202 L279 201 L280 201 L280 200 L281 200 L281 199 L283 199 L283 198 L284 198 L284 197 L285 197 L285 196 L286 196 L286 194 L287 194 L287 193 L288 193 L288 192 L289 192 L289 191 L290 191 L290 189 L291 189 L291 188 L292 188 L292 187 L293 187 L293 185 L294 185 L294 184 L295 184 L295 182 L296 182 L296 181 L297 181 L297 179 L298 179 L298 177 L299 177 L299 176 L300 176 L300 174 L301 174 L301 172 L302 172 L302 169 L303 169 L303 166 L304 166 L304 164 L305 164 L305 161 Z
    M27 598 L27 605 L8 605 L8 606 L7 606 L7 615 L25 615 L25 622 L7 622 L7 632 L28 632 L28 639 L0 639 L0 598 Z
    M70 598 L70 632 L88 632 L88 639 L62 639 L62 598 Z
    M128 598 L128 639 L120 639 L120 598 Z
    M191 598 L191 605 L171 605 L171 615 L189 615 L189 622 L171 622 L171 632 L191 632 L191 639 L164 639 L164 598 Z
    M256 598 L256 604 L255 604 L255 606 L254 606 L254 607 L253 607 L253 608 L252 608 L252 610 L251 610 L251 611 L250 611 L250 612 L249 612 L249 614 L248 614 L248 615 L247 615 L247 616 L246 616 L246 617 L245 617 L245 619 L244 619 L244 620 L243 620 L243 621 L242 621 L242 623 L241 623 L241 624 L240 624 L240 625 L239 625 L239 626 L238 626 L238 628 L237 628 L237 629 L236 629 L236 630 L235 630 L235 632 L256 632 L256 639 L225 639 L225 638 L224 638 L224 633 L225 633 L225 631 L226 631 L226 630 L227 630 L227 629 L228 629 L228 627 L229 627 L229 626 L230 626 L230 625 L231 625 L231 624 L232 624 L232 622 L233 622 L233 621 L234 621 L234 619 L235 619 L235 618 L236 618 L236 617 L237 617 L237 616 L238 616 L238 614 L239 614 L239 613 L240 613 L240 611 L241 611 L241 610 L242 610 L242 609 L243 609 L243 607 L244 607 L244 606 L245 606 L245 605 L225 605 L225 598 Z
    M317 598 L317 604 L316 604 L316 605 L297 605 L297 615 L314 615 L314 616 L315 616 L315 618 L314 618 L314 622 L297 622 L297 632 L317 632 L317 639 L289 639 L289 598 Z
    M371 598 L371 599 L374 599 L374 600 L375 600 L375 601 L377 601 L377 602 L378 602 L378 603 L379 603 L379 605 L380 605 L380 608 L381 608 L381 614 L380 614 L380 617 L379 617 L379 618 L378 618 L378 620 L377 620 L377 621 L375 621 L375 622 L373 622 L373 623 L372 623 L372 624 L373 624 L373 626 L374 626 L374 628 L375 628 L375 629 L376 629 L376 631 L377 631 L377 632 L378 632 L378 634 L379 634 L379 636 L380 636 L380 637 L381 637 L381 639 L373 639 L373 638 L372 638 L372 636 L371 636 L371 635 L370 635 L370 633 L369 633 L369 632 L368 632 L368 630 L367 630 L367 628 L366 628 L366 627 L365 627 L365 625 L364 625 L364 624 L358 624 L358 639 L351 639 L351 638 L350 638 L350 598 Z
    M358 605 L358 617 L369 617 L369 616 L371 616 L371 615 L372 615 L372 614 L373 614 L373 608 L372 608 L372 607 L371 607 L371 606 L369 606 L369 605 Z
    M74 664 L74 665 L75 665 L75 669 L76 669 L76 673 L77 673 L77 674 L78 674 L78 671 L79 671 L79 667 L80 667 L80 665 L81 665 L81 664 L83 664 L83 665 L84 665 L84 668 L85 668 L85 672 L86 672 L86 675 L87 675 L87 671 L88 671 L88 667 L89 667 L89 665 L90 665 L90 664 L92 664 L92 665 L93 665 L93 666 L92 666 L92 670 L91 670 L91 673 L90 673 L90 676 L89 676 L89 680 L87 680 L87 681 L86 681 L86 680 L84 680 L84 676 L83 676 L83 673 L82 673 L82 670 L81 670 L81 674 L80 674 L80 678 L79 678 L79 680 L78 680 L78 681 L76 681 L76 680 L75 680 L75 678 L74 678 L74 674 L73 674 L73 671 L72 671 L72 668 L71 668 L71 664 Z
    M117 664 L117 667 L111 667 L111 668 L110 668 L110 667 L109 667 L109 671 L116 671 L116 674 L109 674 L109 677 L117 677 L117 680 L116 680 L116 681 L106 681 L106 664 Z
    M140 664 L140 665 L142 665 L142 666 L143 666 L143 671 L142 671 L142 672 L143 672 L143 674 L144 674 L144 678 L143 678 L143 679 L142 679 L142 680 L138 680 L138 681 L132 681 L132 680 L131 680 L131 664 Z
    M184 664 L184 665 L186 665 L186 668 L185 668 L185 669 L184 669 L184 668 L183 668 L183 667 L180 667 L180 668 L178 668 L178 669 L179 669 L179 670 L181 670 L181 671 L184 671 L184 672 L185 672 L185 673 L186 673 L186 675 L187 675 L187 677 L186 677 L186 679 L185 679 L185 680 L183 680 L183 681 L178 681 L178 680 L176 680 L176 679 L175 679 L175 677 L176 677 L176 676 L178 676 L178 677 L183 677 L183 675 L182 675 L182 674 L179 674 L179 673 L177 673 L177 672 L176 672 L176 670 L175 670 L175 668 L176 668 L176 666 L177 666 L177 665 L179 665 L179 664 Z
    M211 664 L211 665 L212 665 L212 666 L211 666 L211 667 L207 667 L207 680 L206 680 L206 681 L204 681 L204 668 L203 668 L203 667 L199 667 L199 664 Z
    M227 664 L227 665 L228 665 L228 676 L229 676 L229 677 L234 677 L234 668 L235 668 L235 667 L234 667 L234 666 L235 666 L235 664 L238 664 L238 677 L237 677 L237 678 L236 678 L236 679 L235 679 L235 680 L233 680 L233 681 L229 681 L229 680 L227 680 L227 679 L226 679 L226 678 L225 678 L225 664 Z
    M260 664 L260 665 L262 665 L262 666 L264 666 L264 667 L265 667 L265 669 L266 669 L266 675 L265 675 L265 677 L264 677 L264 678 L263 678 L263 679 L262 679 L262 680 L259 680 L259 681 L253 681 L253 680 L252 680 L252 664 Z
    M282 664 L282 665 L283 665 L283 680 L282 680 L282 681 L280 681 L280 680 L279 680 L279 665 L280 665 L280 664 Z
    M307 664 L307 665 L309 665 L309 666 L310 666 L310 667 L311 667 L311 669 L312 669 L312 676 L311 676 L311 678 L310 678 L310 679 L309 679 L309 680 L306 680 L306 681 L302 681 L302 680 L300 680 L300 679 L298 679 L298 678 L297 678 L297 676 L296 676 L296 669 L297 669 L297 667 L298 667 L298 666 L299 666 L299 665 L301 665 L301 664 Z
    M134 667 L134 671 L138 671 L138 670 L140 670 L140 668 L139 668 L139 667 Z
    M255 667 L255 677 L261 677 L261 676 L262 676 L262 674 L263 674 L263 670 L262 670 L262 669 L261 669 L261 668 L260 668 L260 667 Z
    M302 667 L302 668 L301 668 L301 669 L300 669 L300 671 L299 671 L299 674 L300 674 L300 676 L301 676 L301 677 L307 677 L307 676 L308 676 L308 674 L309 674 L309 670 L308 670 L308 669 L307 669 L307 668 L306 668 L306 667 Z
    M50 672 L50 674 L49 674 L49 675 L0 675 L0 672 Z
    M383 672 L383 674 L382 674 L382 675 L333 675 L333 674 L332 674 L332 673 L333 673 L333 672 Z
    M134 674 L134 677 L140 677 L140 674 Z
    M137 675 L137 676 L136 676 L136 675 Z
  "/>
</svg>
